<svg
    xmlns="http://www.w3.org/2000/svg"
    viewBox="0 0 70 70"
    id="vector">
    <path
        id="path"
        d="M 8 0 L 62 0 C 64.121 0 66.157 0.843 67.657 2.343 C 69.157 3.843 70 5.879 70 8 L 70 62 C 70 64.121 69.157 66.157 67.657 67.657 C 66.157 69.157 64.121 70 62 70 L 8 70 C 5.879 70 3.843 69.157 2.343 67.657 C 0.843 66.157 0 64.121 0 62 L 0 8 C 0 5.879 0.843 3.843 2.343 2.343 C 3.843 0.843 5.879 0 8 0 Z"
        fill="#c8efe2"/>
    <path
        id="path_1"
        d="M 9 19.785 L 9 50.214 C 9 51.2 9.885 52 10.975 52 L 59.025 52 C 60.115 52 61 51.2 61 50.214 L 61 19.785 C 61 18.799 60.115 18 59.025 18 L 10.972 18 C 9.888 18 9 18.799 9 19.785 Z"
        fill="#3da378"/>
    <path
        id="path_2"
        d="M 22.513 34.355 C 24.675 34.355 26.427 32.546 26.427 30.314 C 26.427 28.082 24.675 26.273 22.513 26.273 C 20.352 26.273 18.599 28.082 18.599 30.314 C 18.599 32.546 20.352 34.355 22.513 34.355 Z"
        fill="#ffffff"/>
    <path
        id="path_3"
        d="M 22.595 35.191 L 22.716 35.191 C 24.738 35.191 26.678 35.984 28.108 37.395 C 29.538 38.806 30.341 40.72 30.341 42.716 L 14.965 42.716 C 14.965 41.727 15.162 40.748 15.546 39.835 C 15.929 38.922 16.491 38.092 17.2 37.393 C 17.908 36.694 18.75 36.14 19.675 35.763 C 20.601 35.385 21.593 35.19 22.595 35.191 Z"
        fill="#ffffff"/>
    <path
        id="path_4"
        d="M 51.774 26.639 L 34.72 26.639 L 34.72 29.705 L 51.774 29.705 L 51.774 26.639 Z"
        fill="#ffffff"/>
    <path
        id="path_5"
        d="M 57.086 33.049 L 34.72 33.049 L 34.72 36.115 L 57.086 36.115 L 57.086 33.049 Z"
        fill="#ffffff"/>
    <path
        id="path_6"
        d="M 49.258 39.459 L 34.72 39.459 L 34.72 42.525 L 49.258 42.525 L 49.258 39.459 Z"
        fill="#ffffff"/>
</svg>
